<?xml version="1.0" encoding="UTF-8"?>
<svg width="153px" height="41px" viewBox="0 0 153 41" version="1.1" xmlns="http://www.w3.org/2000/svg" xmlns:xlink="http://www.w3.org/1999/xlink">
    <title>7A3153E1-DE5F-42E2-A42F-AC727D3BEE48</title>
    <defs>
        <polygon id="path-1" points="0 0.146143791 152.811834 0.146143791 152.811834 36.3398693 0 36.3398693"></polygon>
    </defs>
    <g id="Desktop" stroke="none" stroke-width="1" fill="none" fill-rule="evenodd">
        <g id="Desktop_Home" transform="translate(-644.000000, -17.000000)">
            <g id="joy+glee_horizontal_logo_lockup_white" transform="translate(644.000000, 17.000000)">
                <polyline id="Fill-1" fill="#ffffff" points="65.6435609 24.0423529 59.8959571 24.0423529 59.8959571 20.8802614 65.6435609 20.8802614 65.6435609 15.111634 68.9037993 15.111634 68.9037993 20.8802614 74.6514031 20.8802614 74.6514031 24.0423529 68.9037993 24.0423529 68.9037993 29.8109804 65.6435609 29.8109804 65.6435609 24.0423529"></polyline>
                <polyline id="Fill-2" fill="#ffffff" points="103.00784 28.376732 106.010367 28.376732 106.010367 3.33594771 103.00784 3.33594771 103.00784 0.174117647 109.699425 0.174117647 109.699425 28.376732 112.659175 28.376732 112.659175 31.4535948 103.00784 31.4535948 103.00784 28.376732"></polyline>
                <g id="Group-8" transform="translate(0.000000, 3.660131)">
                    <mask id="mask-2" fill="white">
                        <use xlink:href="#path-1"></use>
                    </mask>
                    <g id="Clip-4"></g>
                    <path d="M118.579724,19.76 C119.094885,23.2637908 121.668329,24.9733333 125.271309,24.9733333 C127.630868,24.9733333 129.646374,24.2465359 131.8343,23.0078431 L131.534074,26.383268 C129.604122,27.5796078 127.244563,28.1354248 124.714158,28.1354248 C118.751357,28.1354248 114.719295,24.2894118 114.719295,18.6486275 C114.719295,13.4781699 118.279497,9.03398693 123.89877,9.03398693 C129.604122,9.03398693 132.606386,13.0938562 132.606386,17.7942484 C132.606386,18.4779085 132.520832,19.2047059 132.434491,19.76 L118.579724,19.76 Z M118.579724,17.025098 L128.917328,17.025098 C128.745695,14.0763399 126.944336,12.0684967 123.812954,12.0684967 C121.325063,12.0684967 119.051846,13.6922876 118.579724,17.025098 L118.579724,17.025098 Z" id="Fill-3" fill="#ffffff" mask="url(#mask-2)"></path>
                    <path d="M138.785434,19.76 C139.30007,23.2637908 141.874039,24.9733333 145.476756,24.9733333 C147.836578,24.9733333 149.851822,24.2465359 152.039748,23.0078431 L151.739521,26.383268 C149.809307,27.5796078 147.45001,28.1354248 144.919343,28.1354248 C138.956804,28.1354248 134.92448,24.2894118 134.92448,18.6486275 C134.92448,13.4781699 138.485208,9.03398693 144.104218,9.03398693 C149.809307,9.03398693 152.812096,13.0938562 152.812096,17.7942484 C152.812096,18.4779085 152.726017,19.2047059 152.640201,19.76 L138.785434,19.76 Z M138.785434,17.025098 L149.122775,17.025098 C148.951405,14.0763399 147.149784,12.0684967 144.018664,12.0684967 C141.530511,12.0684967 139.257293,13.6922876 138.785434,17.025098 L138.785434,17.025098 Z" id="Fill-5" fill="#ffffff" mask="url(#mask-2)"></path>
                    <path d="M98.5435472,28.1777778 C98.5435472,30.4428758 97.9430943,32.28 96.8277427,33.6052288 C95.2835712,35.4849673 92.7531664,36.3398693 89.8361938,36.3398693 C86.7903654,36.3398693 84.3455146,35.3997386 83.1446089,34.2033987 C82.4583396,33.5192157 82.1583756,32.7932026 82.1583756,31.980915 C82.1583756,30.6993464 83.1015695,29.5879739 84.4738456,29.5879739 C85.7183156,29.5879739 86.6187324,30.4852288 86.6187324,31.6818301 C86.6187324,32.0237908 86.5334408,32.4086275 86.3615455,32.7077124 C87.0055626,32.9639216 88.0776123,33.3058824 89.6217839,33.3058824 C91.3803654,33.3058824 92.9245369,32.7932026 93.9107702,31.5537255 C94.5114854,30.7843137 94.8547513,29.6737255 94.8547513,28.1777778 L94.8547513,24.9733333 C93.3963962,26.4690196 91.7236312,27.5796078 89.0638456,27.5796078 C84.3027376,27.5796078 80.4425712,23.8622222 80.4425712,18.4355556 C80.4425712,13.3500654 84.1741441,9.03398693 89.3643345,9.03398693 C91.8089228,9.03398693 93.6538456,9.97411765 95.0263842,11.2135948 L95.0263842,9.37594771 L101.417743,9.37594771 L101.417743,12.5377778 L98.5435472,12.5377778 L98.5435472,28.1777778 Z M84.2169211,18.3926797 C84.2169211,22.067451 86.5764803,24.4175163 89.8361938,24.4175163 C91.8522247,24.4175163 93.5252521,23.4773856 94.8547513,22.1098039 L94.8547513,14.0339869 C93.6105437,13.0081046 92.0238576,12.2389542 89.9222727,12.2389542 C86.5764803,12.2389542 84.2169211,14.7173856 84.2169211,18.3926797 L84.2169211,18.3926797 Z" id="Fill-6" fill="#ffffff" mask="url(#mask-2)"></path>
                    <path d="M2.23096569,31.0413072 C3.51742539,31.0413072 4.37559005,32.0237908 4.37559005,33.3058824 L4.37559005,33.4339869 C5.57675815,33.3911111 6.39135849,32.4938562 6.86321784,31.1262745 C7.16370669,30.1440523 7.29256261,28.9900654 7.29256261,27.7082353 L7.29256261,12.5377778 L3.77513722,12.5377778 L3.77513722,9.37594771 L10.9813585,9.37594771 L10.9813585,27.4088889 C10.9813585,29.545098 10.6383551,31.2122876 10.0381647,32.536732 C8.9225506,35.1435294 6.73462436,36.3398693 4.20421955,36.3398693 C1.41584048,36.3398693 0,34.8444444 0,33.3058824 C0,32.1095425 0.943981132,31.0413072 2.23096569,31.0413072 M5.83394511,2.79555556 C5.83394511,1.34248366 7.07789022,0.146143791 8.53624528,0.146143791 C9.95182333,0.146143791 11.1957684,1.34248366 11.1957684,2.79555556 C11.1957684,4.29124183 9.90878388,5.4875817 8.4937307,5.4875817 C7.03485077,5.4875817 5.83394511,4.29124183 5.83394511,2.79555556" id="Fill-7" fill="#ffffff" mask="url(#mask-2)"></path>
                </g>
                <path d="M14.7995352,22.2658824 C14.7995352,17.0954248 18.5741475,12.6941176 24.4500823,12.6941176 C30.3270669,12.6941176 34.1016792,17.0533333 34.1016792,22.2658824 C34.1016792,27.3942484 30.2840274,31.7955556 24.4500823,31.7955556 C18.5308456,31.7955556 14.7995352,27.4366013 14.7995352,22.2658824 M30.2840274,22.2658824 C30.2840274,18.5058824 27.8819537,15.8138562 24.4500823,15.8138562 C20.9759588,15.8138562 18.5741475,18.5058824 18.5741475,22.2658824 C18.5741475,26.0269281 20.9759588,28.675817 24.4500823,28.675817 C27.8819537,28.675817 30.2840274,26.0269281 30.2840274,22.2658824" id="Fill-9" fill="#ffffff"></path>
                <path d="M39.0808714,39.9568627 C37.0220635,39.9568627 35.563446,38.8036601 35.563446,37.3505882 C35.563446,36.0258824 36.4649125,35.256732 37.5797393,35.256732 C38.6523139,35.256732 39.3388456,36.0258824 39.5955077,36.7950327 C40.196223,36.5811765 40.7966758,36.1111111 41.48347,35.1286275 C41.8259485,34.572549 42.2125163,33.8891503 42.6413362,33.0347712 L43.8852813,30.4703268 L37.0651029,16.1979085 L34.6625043,16.1979085 L34.6625043,13.0360784 L43.6708714,13.0360784 L43.6708714,16.0700654 L40.8397153,16.0700654 C40.8397153,16.0700654 45.6869022,27.0094118 45.6436003,27.0094118 L50.5338268,16.0700654 L47.5746021,16.0700654 L47.5746021,13.0360784 L56.4963654,13.0360784 L56.4963654,16.1979085 L54.0942916,16.1979085 L45.3866758,34.7014379 C44.914554,35.6410458 44.4429571,36.4533333 43.9283208,37.1793464 C42.5557822,38.9741176 40.9685712,39.9568627 39.0808714,39.9568627" id="Fill-10" fill="#ffffff"></path>
            </g>
        </g>
    </g>
</svg>