<?xml version="1.0" encoding="UTF-8"?>
<svg width="100px" height="44px" viewBox="0 0 100 44" version="1.1" xmlns="http://www.w3.org/2000/svg" xmlns:xlink="http://www.w3.org/1999/xlink">
    <title>Braun-Logo</title>
    <g id="Symbols" stroke="none" stroke-width="1" fill="none" fill-rule="evenodd">
        <g id="Modules/Desktop/Navigation" transform="translate(-130.000000, -34.000000)" fill="#FFFFFF">
            <g id="Logos/Braun-Primary" transform="translate(130.000000, 34.921569)">
                <path d="M79.2301961,10.4568627 L79.2301961,35.9931373 C79.2301961,40.8519608 74.1870588,42.1568627 71.4419608,42.1568627 C68.6733333,42.1568627 63.6488235,40.8607843 63.6488235,35.9980392 L63.6488235,35.9980392 L63.6488235,10.4637255 L68.8458824,10.4568627 L68.8488235,35.172549 C68.8488235,36.4284314 69.8772549,37.2715686 71.4370588,37.2715686 L71.4370588,37.2715686 L71.6282576,37.2672231 C73.0733163,37.2008255 74.0331373,36.3789216 74.0331373,35.172549 L74.0331373,35.172549 L74.0331373,10.4568627 L79.2301961,10.4568627 Z M50.0009964,0.000707571101 C52.2885888,0.0177211745 58.462451,0.587934748 58.462451,6.84637255 L58.462451,6.84637255 L58.462451,41.8561765 L53.2614706,41.8561765 L53.2644118,28.1610784 L46.5144118,28.1610784 L46.5144118,41.8659804 L41.3163725,41.8659804 L41.3153922,6.84637255 C41.3153922,0.498333333 47.6918627,0.000294117647 49.889902,0.000294117647 Z M29.4201961,10.4630392 C33.4711765,10.4630392 36.4535294,13.0512745 36.4535294,18.7718627 C36.4535294,23.1963725 34.6378431,24.5708824 33.4907843,25.3748039 L33.4907843,25.3748039 L33.4907843,25.3973529 C35.152549,26.3395098 36.3731373,27.4404902 36.3731373,31.3522549 L36.3731373,31.3522549 L36.3701961,41.8620588 L31.13,41.8620588 L31.13,32.1581373 C31.13,29.3826471 30.0731373,28.1610784 28.5947059,28.1610784 L28.5947059,28.1610784 L25.775098,28.1610784 L25.7711765,41.8620588 L20.5760784,41.8620588 L20.5760784,10.4630392 Z M8.84421569,10.4615686 C12.8951961,10.4615686 15.8942157,13.0507843 15.8942157,18.7723529 C15.8942157,23.1958824 14.0608824,24.5703922 12.9138235,25.3733333 L12.9138235,25.3733333 L12.9138235,25.3978431 C14.1991176,26.1752941 16.2148039,27.5870588 16.2148039,32.7017647 C16.2148039,38.1821569 13.7853922,41.8605882 8.79813725,41.8605882 L8.79813725,41.8605882 L9.80392164e-05,41.8605882 L9.80392164e-05,10.4615686 Z M92.2159804,10.1679412 C94.9591176,10.1679412 100.003235,11.4679412 100.003235,16.3326471 L100.003235,41.8571569 L94.8061765,41.8571569 L94.8051961,17.1522549 C94.8051961,15.8944118 93.7610784,15.0532353 92.210098,15.0532353 C90.6502941,15.0532353 89.6218627,15.8963725 89.6218627,17.1522549 L89.6179412,41.8571569 L84.4228431,41.8610784 L84.4218627,16.3248039 C84.4218627,11.465 89.4473529,10.1679412 92.2159804,10.1679412 Z M8.08931373,28.1605882 L5.20009804,28.1605882 L5.20009804,37.0184314 L8.08931373,37.0184314 C9.88833333,37.0184314 10.9893137,35.8713725 10.9893137,32.2586275 C10.9893137,29.6301961 10.0716667,28.1605882 8.08931373,28.1605882 L8.08931373,28.1605882 Z M8.01872549,15.3066667 L5.20009804,15.3066667 L5.20009804,23.3056863 L8.01872549,23.3056863 C9.29127451,23.3056863 10.6530392,22.2772549 10.6530392,19.3086275 C10.6530392,16.3723529 9.47656863,15.3066667 8.01872549,15.3066667 L8.01872549,15.3066667 Z M28.5956863,15.3071569 L25.775098,15.3071569 L25.775098,23.3061765 L28.5956863,23.3061765 C29.8682353,23.3061765 31.225098,22.2757843 31.225098,19.3091176 C31.225098,16.3728431 30.0505882,15.3071569 28.5956863,15.3071569 L28.5956863,15.3071569 Z M49.889902,4.95911765 L49.7744424,4.96006438 C48.5536753,4.98018267 46.5055882,5.33782475 46.5055882,7.62578431 L46.5055882,7.62578431 L46.5026471,23.3061765 L53.2604902,23.3061765 L53.2614706,7.62578431 C53.2614706,5.25715686 51.0928431,4.95911765 49.889902,4.95911765 L49.889902,4.95911765 Z" id="Combined-Shape"></path>
            </g>
        </g>
    </g>
</svg>
